<svg xmlns="http://www.w3.org/2000/svg" viewBox="0 0 512 512">
  <!-- Shield Background -->
  <path fill="#10B981" d="M256 0C114.6 0 0 114.6 0 256s114.6 256 256 256 256-114.6 256-256S397.4 0 256 0z"/>
  
  <!-- Shield Icon Inner -->
  <path fill="#FFFFFF" d="M256 64c-68 0-126 36-156 90 28 50 78 86 136 94v130c0 15 11 28 26 29h2c14-1 25-13 26-28V248c58-8 108-44 136-94-30-54-88-90-156-90zm0 136c-35 0-64-29-64-64s29-64 64-64 64 29 64 64-29 64-64 64z"/>
  
  <!-- Lock Keyhole -->
  <path fill="#065F46" d="M256 160c-13 0-24-11-24-24s11-24 24-24 24 11 24 24-11 24-24 24zm20 60v80h-40v-80c-13-6-20-20-16-34 4-13 16-22 30-22s26 9 30 22c4 14-3 28-16 34z"/>
</svg>